# Rhino

mtllib sphon.mtl
usemtl diffuse_0_0_0_255
v 540.9541015625 -576.023193359375 749.52984619140625
v 358.34390258789062 -384.01547241210938 498.18844604492188
v 175.73370361328125 -192.00773620605469 246.8470458984375
v -6.8765058517456055 0 -4.4943447113037109
v -280.79180908203125 -288.0115966796875 372.51773071289062
v -554.7071533203125 -576.023193359375 749.52984619140625
v -6.8765058517456055 -576.023193359375 749.52984619140625
v -6.8765058517456055 0 -4.4943447113037109
v 175.73370361328125 -192.00773620605469 246.8470458984375
v 358.34390258789062 -384.01547241210938 498.18844604492188
v 540.9541015625 -576.023193359375 749.52984619140625
v 879.5321044921875 -576.023193359375 -292.50595092773438
v 584.06256103515625 -384.01547241210938 -196.50209045410156
v 288.593017578125 -192.00773620605469 -100.49821472167969
v 653.8134765625 -576.023193359375 402.1845703125
v 766.67279052734375 -576.023193359375 54.839309692382812
v -6.8765058517456055 0 -4.4943447113037109
v 288.593017578125 -192.00773620605469 -100.49821472167969
v 584.06256103515625 -384.01547241210938 -196.50209045410156
v 879.5321044921875 -576.023193359375 -292.50595092773438
v -6.8765058517456055 -576.023193359375 -936.51947021484375
v -6.8765058517456055 -288.0115966796875 -470.50692749023438
v 584.06256103515625 -576.023193359375 -507.1771240234375
v 288.593017578125 -576.023193359375 -721.84832763671875
v -6.8765058517456055 0 -4.4943447113037109
v -6.8765058517456055 -288.0115966796875 -470.50692749023438
v -6.8765058517456055 -576.023193359375 -936.51947021484375
v -893.28509521484375 -576.023193359375 -292.50595092773438
v -450.080810546875 -288.0115966796875 -148.50015258789062
v -302.34603881835938 -576.023193359375 -721.84832763671875
v -597.8155517578125 -576.023193359375 -507.1771240234375
v -554.7071533203125 -576.023193359375 749.52984619140625
v -280.79180908203125 -288.0115966796875 372.51773071289062
v -6.8765058517456055 0 -4.4943447113037109
v -450.080810546875 -288.0115966796875 -148.50015258789062
v -893.28509521484375 -576.023193359375 -292.50595092773438
v -780.42578125 -576.023193359375 54.839309692382812
v -667.56646728515625 -576.023193359375 402.1845703125
v -893.28509521484375 -1508.04833984375 283.51727294921875
v -597.8155517578125 -1700.05615234375 187.51339721679688
v -302.34603881835938 -1892.0638427734375 91.509521484375
v -6.8765058517456055 -2084.071533203125 -4.4943447113037109
v -189.48670959472656 -1892.0638427734375 -255.83573913574219
v -372.096923828125 -1700.05615234375 -507.1771240234375
v -554.7071533203125 -1508.04833984375 -758.5185546875
v -667.56646728515625 -1508.04833984375 -411.17324829101562
v -780.42578125 -1508.04833984375 -63.827999114990234
v -554.7071533203125 -1508.04833984375 -758.5185546875
v -372.096923828125 -1700.05615234375 -507.1771240234375
v -189.48670959472656 -1892.0638427734375 -255.83573913574219
v -6.8765058517456055 -2084.071533203125 -4.4943447113037109
v 267.038818359375 -1796.0599365234375 -381.50643920898438
v 540.9541015625 -1508.04833984375 -758.5185546875
v 175.73370361328125 -1508.04833984375 -758.5185546875
v -189.48670959472656 -1508.04833984375 -758.5185546875
v 540.9541015625 -1508.04833984375 -758.5185546875
v 267.038818359375 -1796.0599365234375 -381.50643920898438
v -6.8765058517456055 -2084.071533203125 -4.4943447113037109
v 436.32778930664062 -1796.0599365234375 139.51145935058594
v 879.5321044921875 -1508.04833984375 283.51727294921875
v 766.67279052734375 -1508.04833984375 -63.827999114990234
v 653.8134765625 -1508.04833984375 -411.17324829101562
v 879.5321044921875 -1508.04833984375 283.51727294921875
v 436.32778930664062 -1796.0599365234375 139.51145935058594
v -6.8765058517456055 -2084.071533203125 -4.4943447113037109
v -6.8765058517456055 -1796.0599365234375 461.51821899414062
v -6.8765058517456055 -1508.04833984375 927.53082275390625
v 288.593017578125 -1508.04833984375 712.859619140625
v 584.06256103515625 -1508.04833984375 498.18844604492188
v -6.8765058517456055 -2084.071533203125 -4.4943447113037109
v -302.34603881835938 -1892.0638427734375 91.509521484375
v -597.8155517578125 -1700.05615234375 187.51339721679688
v -893.28509521484375 -1508.04833984375 283.51727294921875
v -6.8765058517456055 -1508.04833984375 927.53082275390625
v -6.8765058517456055 -1796.0599365234375 461.51821899414062
v -597.8155517578125 -1508.04833984375 498.18844604492188
v -302.34603881835938 -1508.04833984375 712.859619140625
v -893.28509521484375 -576.023193359375 -292.50595092773438
v -893.28509521484375 -1508.04833984375 283.51727294921875
v -893.28509521484375 -1508.04833984375 283.51727294921875
v -554.7071533203125 -576.023193359375 749.52984619140625
v -893.28509521484375 -1508.04833984375 283.51727294921875
v -780.42578125 -576.023193359375 54.839309692382812
v -667.56646728515625 -576.023193359375 402.1845703125
v -667.56646728515625 -886.6982421875 594.19232177734375
v -780.42578125 -1197.373291015625 438.85479736328125
v -893.28509521484375 -1197.373291015625 91.509521484375
v -893.28509521484375 -886.6982421875 -100.49821472167969
v -808.640625 -1042.0357666015625 256.01458740234375
v -893.28509521484375 -1508.04833984375 283.51727294921875
v -554.7071533203125 -576.023193359375 749.52984619140625
v -554.7071533203125 -576.023193359375 749.52984619140625
v -6.8765058517456055 -1508.04833984375 927.53082275390625
v -554.7071533203125 -576.023193359375 749.52984619140625
v -597.8155517578125 -1508.04833984375 498.18844604492188
v -302.34603881835938 -1508.04833984375 712.859619140625
v -667.56646728515625 -886.6982421875 594.19232177734375
v -780.42578125 -1197.373291015625 438.85479736328125
v -189.48670959472656 -1197.373291015625 868.1971435546875
v -372.096923828125 -886.6982421875 808.86346435546875
v -502.39398193359375 -1042.0357666015625 677.52691650390625
v 540.9541015625 -576.023193359375 749.52984619140625
v -6.8765058517456055 -576.023193359375 749.52984619140625
v -554.7071533203125 -576.023193359375 749.52984619140625
v -6.8765058517456055 -1508.04833984375 927.53082275390625
v -554.7071533203125 -576.023193359375 749.52984619140625
v -189.48670959472656 -1197.373291015625 868.1971435546875
v -372.096923828125 -886.6982421875 808.86346435546875
v 358.34390258789062 -886.6982421875 808.86346435546875
v 175.73370361328125 -1197.373291015625 868.1971435546875
v 540.9541015625 -576.023193359375 749.52984619140625
v -6.8765058517456055 -1508.04833984375 927.53082275390625
v -6.8765058517456055 -1508.04833984375 927.53082275390625
v 879.5321044921875 -1508.04833984375 283.51727294921875
v -6.8765058517456055 -1508.04833984375 927.53082275390625
v 584.06256103515625 -1508.04833984375 498.18844604492188
v 288.593017578125 -1508.04833984375 712.859619140625
v 653.8134765625 -886.6982421875 594.19232177734375
v 766.67279052734375 -1197.373291015625 438.85479736328125
v 175.73370361328125 -1197.373291015625 868.1971435546875
v 358.34390258789062 -886.6982421875 808.86346435546875
v 351.68328857421875 -1275.0421142578125 722.02716064453125
v 879.5321044921875 -576.023193359375 -292.50595092773438
v 540.9541015625 -576.023193359375 749.52984619140625
v 540.9541015625 -576.023193359375 749.52984619140625
v 879.5321044921875 -1508.04833984375 283.51727294921875
v 540.9541015625 -576.023193359375 749.52984619140625
v 653.8134765625 -576.023193359375 402.1845703125
v 766.67279052734375 -576.023193359375 54.839309692382812
v 766.67279052734375 -1197.373291015625 438.85479736328125
v 653.8134765625 -886.6982421875 594.19232177734375
v 879.5321044921875 -886.6982421875 -100.49821472167969
v 879.5321044921875 -1197.373291015625 91.509521484375
v 710.24310302734375 -809.02947998046875 372.51773071289062
v 879.5321044921875 -576.023193359375 -292.50595092773438
v 879.5321044921875 -1508.04833984375 283.51727294921875
v 879.5321044921875 -1508.04833984375 283.51727294921875
v 540.9541015625 -1508.04833984375 -758.5185546875
v 879.5321044921875 -1508.04833984375 283.51727294921875
v 653.8134765625 -1508.04833984375 -411.17324829101562
v 766.67279052734375 -1508.04833984375 -63.827999114990234
v 766.67279052734375 -886.6982421875 -447.84347534179688
v 653.8134765625 -1197.373291015625 -603.1810302734375
v 879.5321044921875 -1197.373291015625 91.509521484375
v 879.5321044921875 -886.6982421875 -100.49821472167969
v -6.8765058517456055 -576.023193359375 -936.51947021484375
v 879.5321044921875 -576.023193359375 -292.50595092773438
v 879.5321044921875 -576.023193359375 -292.50595092773438
v 540.9541015625 -1508.04833984375 -758.5185546875
v 879.5321044921875 -576.023193359375 -292.50595092773438
v 584.06256103515625 -576.023193359375 -507.1771240234375
v 288.593017578125 -576.023193359375 -721.84832763671875
v 653.8134765625 -1197.373291015625 -603.1810302734375
v 766.67279052734375 -886.6982421875 -447.84347534179688
v 175.73370361328125 -886.6982421875 -877.18585205078125
v 358.34390258789062 -1197.373291015625 -817.8521728515625
v 573.28546142578125 -809.02947998046875 -570.012451171875
v -6.8765058517456055 -576.023193359375 -936.51947021484375
v 540.9541015625 -1508.04833984375 -758.5185546875
v 540.9541015625 -1508.04833984375 -758.5185546875
v -554.7071533203125 -1508.04833984375 -758.5185546875
v 540.9541015625 -1508.04833984375 -758.5185546875
v -189.48670959472656 -1508.04833984375 -758.5185546875
v 175.73370361328125 -1508.04833984375 -758.5185546875
v -189.48670959472656 -886.6982421875 -877.18585205078125
v -372.096923828125 -1197.373291015625 -817.8521728515625
v 358.34390258789062 -1197.373291015625 -817.8521728515625
v 175.73370361328125 -886.6982421875 -877.18585205078125
v 130.08114624023438 -1275.0421142578125 -803.01873779296875
v -893.28509521484375 -576.023193359375 -292.50595092773438
v -6.8765058517456055 -576.023193359375 -936.51947021484375
v -6.8765058517456055 -576.023193359375 -936.51947021484375
v -554.7071533203125 -1508.04833984375 -758.5185546875
v -6.8765058517456055 -576.023193359375 -936.51947021484375
v -302.34603881835938 -576.023193359375 -721.84832763671875
v -597.8155517578125 -576.023193359375 -507.1771240234375
v -372.096923828125 -1197.373291015625 -817.8521728515625
v -189.48670959472656 -886.6982421875 -877.18585205078125
v -780.42578125 -886.6982421875 -447.84347534179688
v -667.56646728515625 -1197.373291015625 -603.1810302734375
v -365.43630981445312 -809.02947998046875 -731.015869140625
v -893.28509521484375 -576.023193359375 -292.50595092773438
v -554.7071533203125 -1508.04833984375 -758.5185546875
v -554.7071533203125 -1508.04833984375 -758.5185546875
v -893.28509521484375 -1508.04833984375 283.51727294921875
v -554.7071533203125 -1508.04833984375 -758.5185546875
v -780.42578125 -1508.04833984375 -63.827999114990234
v -667.56646728515625 -1508.04833984375 -411.17324829101562
v -893.28509521484375 -886.6982421875 -100.49821472167969
v -893.28509521484375 -1197.373291015625 91.509521484375
v -667.56646728515625 -1197.373291015625 -603.1810302734375
v -780.42578125 -886.6982421875 -447.84347534179688
v -723.99609375 -1275.0421142578125 -381.50643920898438
vt 0.99698442220687866 0.72685617208480835
vt 0.94529342651367188 0.69697529077529907
vt 0.89360237121582031 0.66709440946578979
vt 0.84191137552261353 0.63721358776092529
vt 0.91944789886474609 0.59239232540130615
vt 0.99698442220687866 0.54757100343704224
vt 0.99698442220687866 0.63721358776092529
vt 0.68227195739746094 0.45287790894508362
vt 0.7339630126953125 0.42299705743789673
vt 0.78565400838851929 0.39311620593070984
vt 0.83734506368637085 0.36323535442352295
vt 0.83734506368637085 0.54252046346664429
vt 0.78565400838851929 0.51263964176177979
vt 0.7339630126953125 0.48275876045227051
vt 0.83734506368637085 0.42299705743789673
vt 0.83734506368637085 0.48275876045227051
vt 0.68227195739746094 0.63721358776092529
vt 0.7339630126953125 0.60733270645141602
vt 0.78565400838851929 0.57745188474655151
vt 0.83734506368637085 0.54757100343704224
vt 0.83734506368637085 0.72685617208480835
vt 0.75980854034423828 0.68203485012054443
vt 0.83734506368637085 0.60733270645141602
vt 0.83734506368637085 0.66709440946578979
vt 0.52263259887695312 0.45287790894508362
vt 0.60016912221908569 0.40805664658546448
vt 0.67770564556121826 0.36323535442352295
vt 0.67770564556121826 0.54252046346664429
vt 0.60016912221908569 0.49769920110702515
vt 0.67770564556121826 0.42299705743789673
vt 0.67770564556121826 0.48275876045227051
vt 0.51806628704071045 0.54252046346664429
vt 0.44052976369857788 0.49769920110702515
vt 0.36299324035644531 0.45287790894508362
vt 0.44052976369857788 0.40805664658546448
vt 0.51806628704071045 0.36323535442352295
vt 0.51806628704071045 0.42299705743789673
vt 0.51806628704071045 0.48275876045227051
vt 0.54397094249725342 0.182286337018013
vt 0.51385074853897095 0.23445607721805573
vt 0.48373052477836609 0.28662580251693726
vt 0.45361033082008362 0.33879551291465759
vt 0.42349013686180115 0.28662580251693726
vt 0.39336991310119629 0.23445607721805573
vt 0.36324971914291382 0.182286337018013
vt 0.42349013686180115 0.182286337018013
vt 0.48373052477836609 0.182286337018013
vt 0.67770564556121826 0.72685617208480835
vt 0.62601464986801147 0.69697529077529907
vt 0.57432365417480469 0.66709440946578979
vt 0.52263259887695312 0.63721358776092529
vt 0.60016912221908569 0.59239232540130615
vt 0.67770564556121826 0.54757100343704224
vt 0.67770564556121826 0.60733270645141602
vt 0.67770564556121826 0.66709440946578979
vt 0.51806628704071045 0.72685617208480835
vt 0.44052976369857788 0.68203485012054443
vt 0.36299324035644531 0.63721358776092529
vt 0.44052976369857788 0.59239232540130615
vt 0.51806628704071045 0.54757100343704224
vt 0.51806628704071045 0.60733270645141602
vt 0.51806628704071045 0.66709440946578979
vt 0.99698442220687866 0.54252046346664429
vt 0.91944789886474609 0.49769920110702515
vt 0.84191137552261353 0.45287790894508362
vt 0.91944789886474609 0.40805664658546448
vt 0.99698442220687866 0.36323535442352295
vt 0.99698442220687866 0.42299705743789673
vt 0.99698442220687866 0.48275876045227051
vt 0.45361033082008362 0.1580742746591568
vt 0.42349013686180115 0.10590454936027527
vt 0.39336991310119629 0.053734824061393738
vt 0.36324971914291382 0.0015650920104235411
vt 0.54397094249725342 0.0015650920104235411
vt 0.49879065155982971 0.079819686710834503
vt 0.42349013686180115 0.0015650920104235411
vt 0.48373052477836609 0.0015650920104235411
vt 0.86460369825363159 0
vt 0.68388241529464722 0
vt 0.68388241529464722 0.089628204703330994
vt 0.86460369825363159 0.17925640940666199
vt 0.68388241529464722 0.17925640940666199
vt 0.86460369825363159 0.059752136468887329
vt 0.86460369825363159 0.11950427293777466
vt 0.80436325073242188 0.17925640940666199
vt 0.74412286281585693 0.17925640940666199
vt 0.74412286281585693 0
vt 0.80436325073242188 0
vt 0.7742430567741394 0.089628204703330994
vt 0.35997766256332397 0.54758536815643311
vt 0.18072125315666199 0.54758536815643311
vt 0.18072125315666199 0.63794600963592529
vt 0.35997766256332397 0.72830665111541748
vt 0.18072125315666199 0.72830665111541748
vt 0.35997766256332397 0.60782581567764282
vt 0.35997766256332397 0.66806620359420776
vt 0.24047337472438812 0.54758536815643311
vt 0.30022552609443665 0.54758536815643311
vt 0.30022552609443665 0.72830665111541748
vt 0.24047337472438812 0.72830665111541748
vt 0.27034944295883179 0.63794600963592529
vt 0.18072125315666199 0.36505693197250366
vt 0.18072125315666199 0.45541754364967346
vt 0.18072125315666199 0.54577815532684326
vt 0.35997766256332397 0.36505693197250366
vt 0.35997766256332397 0.54577815532684326
vt 0.35997766256332397 0.42529734969139099
vt 0.35997766256332397 0.48553776741027832
vt 0.24047338962554932 0.36505693197250366
vt 0.30022552609443665 0.36505693197250366
vt 0.17925640940666199 0.18252846598625183
vt 0 0.18252846598625183
vt 0 0.27288907766342163
vt 0.17925640940666199 0.36324971914291382
vt 0 0.36324971914291382
vt 0.11950426548719406 0.36324971914291382
vt 0.059752132743597031 0.36324971914291382
vt 0.17925640940666199 0.24276888370513916
vt 0.17925640940666199 0.30300930142402649
vt 0.059752132743597031 0.18252846598625183
vt 0.11950426548719406 0.18252846598625183
vt 0.089628204703330994 0.27288907766342163
vt 0.17925640940666199 0
vt 0 0
vt 0 0.090360626578330994
vt 0.17925640940666199 0.18072125315666199
vt 0 0.18072125315666199
vt 0.059752132743597031 0
vt 0.11950426548719406 0
vt 0.11950426548719406 0.18072125315666199
vt 0.059752132743597031 0.18072125315666199
vt 0.17925640940666199 0.060240417718887329
vt 0.17925640940666199 0.12048083543777466
vt 0.089628204703330994 0.090360626578330994
vt 0.18072125315666199 0.18252846598625183
vt 0.18072125315666199 0.36324971914291382
vt 0.27034944295883179 0.36324971914291382
vt 0.35997766256332397 0.18252846598625183
vt 0.35997766256332397 0.36324971914291382
vt 0.35997766256332397 0.24276888370513916
vt 0.35997766256332397 0.30300930142402649
vt 0.24047338962554932 0.18252846598625183
vt 0.30022552609443665 0.18252846598625183
vt 0.18072125315666199 0.30300930142402649
vt 0.18072125315666199 0.24276888370513916
vt 0.35997766256332397 0
vt 0.18072125315666199 0
vt 0.18072125315666199 0.090360626578330994
vt 0.35997766256332397 0.18072125315666199
vt 0.18072125315666199 0.18072125315666199
vt 0.24047337472438812 0
vt 0.30022552609443665 0
vt 0.30022552609443665 0.18072125315666199
vt 0.24047337472438812 0.18072125315666199
vt 0.35997766256332397 0.060240417718887329
vt 0.35997766256332397 0.12048083543777466
vt 0.27034944295883179 0.090360626578330994
vt 0.17925640940666199 0.54758536815643311
vt 0 0.54758536815643311
vt 0 0.63794600963592529
vt 0.17925640940666199 0.72830665111541748
vt 0 0.72830665111541748
vt 0.11950426548719406 0.72830665111541748
vt 0.059752132743597031 0.72830665111541748
vt 0.17925640940666199 0.60782581567764282
vt 0.17925640940666199 0.66806620359420776
vt 0.059752132743597031 0.54758536815643311
vt 0.11950426548719406 0.54758536815643311
vt 0.089628204703330994 0.63794600963592529
vt 0.86460369825363159 0.18072125315666199
vt 0.68388241529464722 0.18072125315666199
vt 0.68388241529464722 0.27034944295883179
vt 0.86460369825363159 0.35997766256332397
vt 0.68388241529464722 0.35997766256332397
vt 0.74412286281585693 0.18072125315666199
vt 0.80436325073242188 0.18072125315666199
vt 0.80436325073242188 0.35997766256332397
vt 0.74412286281585693 0.35997766256332397
vt 0.86460369825363159 0.24047338962554932
vt 0.86460369825363159 0.30022552609443665
vt 0.7742430567741394 0.27034944295883179
vt 0.17925640940666199 0.36505693197250366
vt 0 0.36505693197250366
vt 0 0.45541754364967346
vt 0.17925640940666199 0.54577815532684326
vt 0 0.54577815532684326
vt 0.11950426548719406 0.54577815532684326
vt 0.059752132743597031 0.54577815532684326
vt 0.17925640940666199 0.42529734969139099
vt 0.17925640940666199 0.48553776741027832
vt 0.059752132743597031 0.36505693197250366
vt 0.11950426548719406 0.36505693197250366
vt 0.089628204703330994 0.45541754364967346
vn 0 0.7946544885635376 0.60706198215484619
vn 0 0.7946544885635376 0.60706198215484619
vn 0 0.7946544885635376 0.60706198215484619
vn 0 0.7946544885635376 0.60706198215484619
vn 0 0.7946544885635376 0.60706198215484619
vn 0 0.7946544885635376 0.60706198215484619
vn 0 0.7946544885635376 0.60706198215484619
vn 0.57735025882720947 0.7946544885635376 0.18759247660636902
vn 0.57735025882720947 0.7946544885635376 0.18759247660636902
vn 0.57735025882720947 0.7946544885635376 0.18759247660636902
vn 0.57735025882720947 0.7946544885635376 0.18759247660636902
vn 0.57735025882720947 0.7946544885635376 0.18759247660636902
vn 0.57735025882720947 0.7946544885635376 0.18759247660636902
vn 0.57735025882720947 0.7946544885635376 0.18759247660636902
vn 0.57735025882720947 0.7946544885635376 0.18759247660636902
vn 0.57735025882720947 0.7946544885635376 0.18759247660636902
vn 0.35682210326194763 0.7946544885635376 -0.49112346768379211
vn 0.35682210326194763 0.7946544885635376 -0.49112346768379211
vn 0.35682210326194763 0.7946544885635376 -0.49112346768379211
vn 0.35682210326194763 0.7946544885635376 -0.49112346768379211
vn 0.35682210326194763 0.7946544885635376 -0.49112346768379211
vn 0.35682210326194763 0.7946544885635376 -0.49112346768379211
vn 0.35682210326194763 0.7946544885635376 -0.49112346768379211
vn 0.35682210326194763 0.7946544885635376 -0.49112346768379211
vn -0.35682210326194763 0.7946544885635376 -0.49112346768379211
vn -0.35682210326194763 0.7946544885635376 -0.49112346768379211
vn -0.35682210326194763 0.7946544885635376 -0.49112346768379211
vn -0.35682210326194763 0.7946544885635376 -0.49112346768379211
vn -0.35682210326194763 0.7946544885635376 -0.49112346768379211
vn -0.35682210326194763 0.7946544885635376 -0.49112346768379211
vn -0.35682210326194763 0.7946544885635376 -0.49112346768379211
vn -0.57735025882720947 0.7946544885635376 0.18759247660636902
vn -0.57735025882720947 0.7946544885635376 0.18759247660636902
vn -0.57735025882720947 0.7946544885635376 0.18759247660636902
vn -0.57735025882720947 0.7946544885635376 0.18759247660636902
vn -0.57735025882720947 0.7946544885635376 0.18759247660636902
vn -0.57735025882720947 0.7946544885635376 0.18759247660636902
vn -0.57735025882720947 0.7946544885635376 0.18759247660636902
vn -0.57735025882720947 -0.7946544885635376 -0.18759247660636902
vn -0.57735025882720947 -0.7946544885635376 -0.18759247660636902
vn -0.57735025882720947 -0.7946544885635376 -0.18759247660636902
vn -0.57735025882720947 -0.7946544885635376 -0.18759247660636902
vn -0.57735025882720947 -0.7946544885635376 -0.18759247660636902
vn -0.57735025882720947 -0.7946544885635376 -0.18759247660636902
vn -0.57735025882720947 -0.7946544885635376 -0.18759247660636902
vn -0.57735025882720947 -0.7946544885635376 -0.18759247660636902
vn -0.57735025882720947 -0.7946544885635376 -0.18759247660636902
vn 0 -0.7946544885635376 -0.60706198215484619
vn 0 -0.7946544885635376 -0.60706198215484619
vn 0 -0.7946544885635376 -0.60706198215484619
vn 0 -0.7946544885635376 -0.60706198215484619
vn 0 -0.7946544885635376 -0.60706198215484619
vn 0 -0.7946544885635376 -0.60706198215484619
vn 0 -0.7946544885635376 -0.60706198215484619
vn 0 -0.7946544885635376 -0.60706198215484619
vn 0.57735025882720947 -0.7946544885635376 -0.18759247660636902
vn 0.57735025882720947 -0.7946544885635376 -0.18759247660636902
vn 0.57735025882720947 -0.7946544885635376 -0.18759247660636902
vn 0.57735025882720947 -0.7946544885635376 -0.18759247660636902
vn 0.57735025882720947 -0.7946544885635376 -0.18759247660636902
vn 0.57735025882720947 -0.7946544885635376 -0.18759247660636902
vn 0.57735025882720947 -0.7946544885635376 -0.18759247660636902
vn 0.35682210326194763 -0.7946544885635376 0.49112346768379211
vn 0.35682210326194763 -0.7946544885635376 0.49112346768379211
vn 0.35682210326194763 -0.7946544885635376 0.49112346768379211
vn 0.35682210326194763 -0.7946544885635376 0.49112346768379211
vn 0.35682210326194763 -0.7946544885635376 0.49112346768379211
vn 0.35682210326194763 -0.7946544885635376 0.49112346768379211
vn 0.35682210326194763 -0.7946544885635376 0.49112346768379211
vn -0.35682210326194763 -0.7946544885635376 0.49112346768379211
vn -0.35682210326194763 -0.7946544885635376 0.49112346768379211
vn -0.35682210326194763 -0.7946544885635376 0.49112346768379211
vn -0.35682210326194763 -0.7946544885635376 0.49112346768379211
vn -0.35682210326194763 -0.7946544885635376 0.49112346768379211
vn -0.35682210326194763 -0.7946544885635376 0.49112346768379211
vn -0.35682210326194763 -0.7946544885635376 0.49112346768379211
vn -0.35682210326194763 -0.7946544885635376 0.49112346768379211
vn -0.93417233228683472 0.18759247660636902 0.3035309910774231
vn -0.93417233228683472 0.18759247660636902 0.3035309910774231
vn -0.93417233228683472 0.18759247660636902 0.3035309910774231
vn -0.93417233228683472 0.18759247660636902 0.3035309910774231
vn -0.93417233228683472 0.18759247660636902 0.3035309910774231
vn -0.93417233228683472 0.18759247660636902 0.3035309910774231
vn -0.93417233228683472 0.18759247660636902 0.3035309910774231
vn -0.93417233228683472 0.18759247660636902 0.3035309910774231
vn -0.93417233228683472 0.18759247660636902 0.3035309910774231
vn -0.93417233228683472 0.18759247660636902 0.3035309910774231
vn -0.93417233228683472 0.18759247660636902 0.3035309910774231
vn -0.93417233228683472 0.18759247660636902 0.3035309910774231
vn -0.57735025882720947 -0.18759247660636902 0.7946544885635376
vn -0.57735025882720947 -0.18759247660636902 0.7946544885635376
vn -0.57735025882720947 -0.18759247660636902 0.7946544885635376
vn -0.57735025882720947 -0.18759247660636902 0.7946544885635376
vn -0.57735025882720947 -0.18759247660636902 0.7946544885635376
vn -0.57735025882720947 -0.18759247660636902 0.7946544885635376
vn -0.57735025882720947 -0.18759247660636902 0.7946544885635376
vn -0.57735025882720947 -0.18759247660636902 0.7946544885635376
vn -0.57735025882720947 -0.18759247660636902 0.7946544885635376
vn -0.57735025882720947 -0.18759247660636902 0.7946544885635376
vn -0.57735025882720947 -0.18759247660636902 0.7946544885635376
vn -0.57735025882720947 -0.18759247660636902 0.7946544885635376
vn 0 0.18759247660636902 0.98224693536758423
vn 0 0.18759247660636902 0.98224693536758423
vn 0 0.18759247660636902 0.98224693536758423
vn 0 0.18759247660636902 0.98224693536758423
vn 0 0.18759247660636902 0.98224693536758423
vn 0 0.18759247660636902 0.98224693536758423
vn 0 0.18759247660636902 0.98224693536758423
vn 0 0.18759247660636902 0.98224693536758423
vn 0 0.18759247660636902 0.98224693536758423
vn 0.57735025882720947 -0.18759247660636902 0.7946544885635376
vn 0.57735025882720947 -0.18759247660636902 0.7946544885635376
vn 0.57735025882720947 -0.18759247660636902 0.7946544885635376
vn 0.57735025882720947 -0.18759247660636902 0.7946544885635376
vn 0.57735025882720947 -0.18759247660636902 0.7946544885635376
vn 0.57735025882720947 -0.18759247660636902 0.7946544885635376
vn 0.57735025882720947 -0.18759247660636902 0.7946544885635376
vn 0.57735025882720947 -0.18759247660636902 0.7946544885635376
vn 0.57735025882720947 -0.18759247660636902 0.7946544885635376
vn 0.57735025882720947 -0.18759247660636902 0.7946544885635376
vn 0.57735025882720947 -0.18759247660636902 0.7946544885635376
vn 0.57735025882720947 -0.18759247660636902 0.7946544885635376
vn 0.93417233228683472 0.18759247660636902 0.3035309910774231
vn 0.93417233228683472 0.18759247660636902 0.3035309910774231
vn 0.93417233228683472 0.18759247660636902 0.3035309910774231
vn 0.93417233228683472 0.18759247660636902 0.3035309910774231
vn 0.93417233228683472 0.18759247660636902 0.3035309910774231
vn 0.93417233228683472 0.18759247660636902 0.3035309910774231
vn 0.93417233228683472 0.18759247660636902 0.3035309910774231
vn 0.93417233228683472 0.18759247660636902 0.3035309910774231
vn 0.93417233228683472 0.18759247660636902 0.3035309910774231
vn 0.93417233228683472 0.18759247660636902 0.3035309910774231
vn 0.93417233228683472 0.18759247660636902 0.3035309910774231
vn 0.93417233228683472 0.18759247660636902 0.3035309910774231
vn 0.93417233228683472 -0.18759247660636902 -0.3035309910774231
vn 0.93417233228683472 -0.18759247660636902 -0.3035309910774231
vn 0.93417233228683472 -0.18759247660636902 -0.3035309910774231
vn 0.93417233228683472 -0.18759247660636902 -0.3035309910774231
vn 0.93417233228683472 -0.18759247660636902 -0.3035309910774231
vn 0.93417233228683472 -0.18759247660636902 -0.3035309910774231
vn 0.93417233228683472 -0.18759247660636902 -0.3035309910774231
vn 0.93417233228683472 -0.18759247660636902 -0.3035309910774231
vn 0.93417233228683472 -0.18759247660636902 -0.3035309910774231
vn 0.93417233228683472 -0.18759247660636902 -0.3035309910774231
vn 0.93417233228683472 -0.18759247660636902 -0.3035309910774231
vn 0.57735025882720947 0.18759247660636902 -0.7946544885635376
vn 0.57735025882720947 0.18759247660636902 -0.7946544885635376
vn 0.57735025882720947 0.18759247660636902 -0.7946544885635376
vn 0.57735025882720947 0.18759247660636902 -0.7946544885635376
vn 0.57735025882720947 0.18759247660636902 -0.7946544885635376
vn 0.57735025882720947 0.18759247660636902 -0.7946544885635376
vn 0.57735025882720947 0.18759247660636902 -0.7946544885635376
vn 0.57735025882720947 0.18759247660636902 -0.7946544885635376
vn 0.57735025882720947 0.18759247660636902 -0.7946544885635376
vn 0.57735025882720947 0.18759247660636902 -0.7946544885635376
vn 0.57735025882720947 0.18759247660636902 -0.7946544885635376
vn 0.57735025882720947 0.18759247660636902 -0.7946544885635376
vn 0 -0.18759247660636902 -0.98224693536758423
vn 0 -0.18759247660636902 -0.98224693536758423
vn 0 -0.18759247660636902 -0.98224693536758423
vn 0 -0.18759247660636902 -0.98224693536758423
vn 0 -0.18759247660636902 -0.98224693536758423
vn 0 -0.18759247660636902 -0.98224693536758423
vn 0 -0.18759247660636902 -0.98224693536758423
vn 0 -0.18759247660636902 -0.98224693536758423
vn 0 -0.18759247660636902 -0.98224693536758423
vn 0 -0.18759247660636902 -0.98224693536758423
vn 0 -0.18759247660636902 -0.98224693536758423
vn 0 -0.18759247660636902 -0.98224693536758423
vn -0.57735025882720947 0.18759247660636902 -0.7946544885635376
vn -0.57735025882720947 0.18759247660636902 -0.7946544885635376
vn -0.57735025882720947 0.18759247660636902 -0.7946544885635376
vn -0.57735025882720947 0.18759247660636902 -0.7946544885635376
vn -0.57735025882720947 0.18759247660636902 -0.7946544885635376
vn -0.57735025882720947 0.18759247660636902 -0.7946544885635376
vn -0.57735025882720947 0.18759247660636902 -0.7946544885635376
vn -0.57735025882720947 0.18759247660636902 -0.7946544885635376
vn -0.57735025882720947 0.18759247660636902 -0.7946544885635376
vn -0.57735025882720947 0.18759247660636902 -0.7946544885635376
vn -0.57735025882720947 0.18759247660636902 -0.7946544885635376
vn -0.57735025882720947 0.18759247660636902 -0.7946544885635376
vn -0.93417233228683472 -0.18759247660636902 -0.3035309910774231
vn -0.93417233228683472 -0.18759247660636902 -0.3035309910774231
vn -0.93417233228683472 -0.18759247660636902 -0.3035309910774231
vn -0.93417233228683472 -0.18759247660636902 -0.3035309910774231
vn -0.93417233228683472 -0.18759247660636902 -0.3035309910774231
vn -0.93417233228683472 -0.18759247660636902 -0.3035309910774231
vn -0.93417233228683472 -0.18759247660636902 -0.3035309910774231
vn -0.93417233228683472 -0.18759247660636902 -0.3035309910774231
vn -0.93417233228683472 -0.18759247660636902 -0.3035309910774231
vn -0.93417233228683472 -0.18759247660636902 -0.3035309910774231
vn -0.93417233228683472 -0.18759247660636902 -0.3035309910774231
vn -0.93417233228683472 -0.18759247660636902 -0.3035309910774231
f 5/5/5 6/6/6 7/7/7
f 2/2/2 5/5/5 7/7/7
f 7/7/7 1/1/1 2/2/2
f 5/5/5 3/3/3 4/4/4
f 5/5/5 2/2/2 3/3/3
f 10/10/10 11/11/11 15/15/15
f 10/10/10 14/14/14 9/9/9
f 16/16/16 10/10/10 15/15/15
f 13/13/13 16/16/16 12/12/12
f 14/14/14 8/8/8 9/9/9
f 13/13/13 14/14/14 10/10/10
f 13/13/13 10/10/10 16/16/16
f 19/19/19 20/20/20 23/23/23
f 23/23/23 18/18/18 19/19/19
f 18/18/18 23/23/23 24/24/24
f 22/22/22 24/24/24 21/21/21
f 22/22/22 17/17/17 18/18/18
f 24/24/24 22/22/22 18/18/18
f 26/26/26 27/27/27 30/30/30
f 31/31/31 26/26/26 30/30/30
f 29/29/29 31/31/31 28/28/28
f 29/29/29 25/25/25 26/26/26
f 31/31/31 29/29/29 26/26/26
f 35/35/35 36/36/36 37/37/37
f 37/37/37 38/38/38 33/33/33 35/35/35
f 33/33/33 38/38/38 32/32/32
f 33/33/33 34/34/34 35/35/35
f 44/44/44 46/46/46 45/45/45
f 44/44/44 43/43/43 41/41/41
f 47/47/47 46/46/46 44/44/44
f 40/40/40 39/39/39 47/47/47
f 41/41/41 43/43/43 42/42/42
f 40/40/40 44/44/44 41/41/41
f 40/40/40 47/47/47 44/44/44
f 52/52/52 54/54/54 53/53/53
f 52/52/52 51/51/51 50/50/50
f 49/49/49 54/54/54 52/52/52
f 49/49/49 48/48/48 55/55/55
f 49/49/49 52/52/52 50/50/50
f 55/55/55 54/54/54 49/49/49
f 59/59/59 61/61/61 60/60/60
f 61/61/61 59/59/59 57/57/57 62/62/62
f 57/57/57 56/56/56 62/62/62
f 57/57/57 59/59/59 58/58/58
f 66/66/66 68/68/68 67/67/67
f 69/69/69 68/68/68 66/66/66
f 64/64/64 63/63/63 69/69/69
f 64/64/64 66/66/66 65/65/65
f 69/69/69 66/66/66 64/64/64
f 72/72/72 76/76/76 73/73/73
f 76/76/76 72/72/72 71/71/71
f 71/71/71 77/77/77 76/76/76
f 75/75/75 74/74/74 77/77/77
f 75/75/75 71/71/71 70/70/70
f 77/77/77 71/71/71 75/75/75
f 88/88/88 83/83/83 78/78/78
f 89/89/89 83/83/83 88/88/88
f 79/79/79 89/89/89 87/87/87
f 88/88/88 87/87/87 89/89/89
f 89/89/89 84/84/84 83/83/83
f 85/85/85 81/81/81 84/84/84
f 85/85/85 89/89/89 86/86/86
f 86/86/86 89/89/89 80/80/80
f 84/84/84 89/89/89 85/85/85
f 98/98/98 90/90/90 95/95/95
f 101/101/101 98/98/98 95/95/95
f 91/91/91 97/97/97 101/101/101
f 98/98/98 101/101/101 97/97/97
f 101/101/101 95/95/95 96/96/96
f 99/99/99 96/96/96 93/93/93
f 99/99/99 100/100/100 101/101/101
f 100/100/100 92/92/92 101/101/101
f 96/96/96 99/99/99 101/101/101
f 103/103/103 109/109/109 102/102/102
f 104/104/104 108/108/108 103/103/103
f 107/107/107 109/109/109 103/103/103
f 107/107/107 105/105/105 110/110/110
f 107/107/107 103/103/103 108/108/108
f 107/107/107 110/110/110 109/109/109
f 121/121/121 118/118/118 111/111/111
f 122/122/122 118/118/118 121/121/121
f 121/121/121 120/120/120 122/122/122
f 122/122/122 120/120/120 113/113/113
f 122/122/122 119/119/119 118/118/118
f 116/116/116 114/114/114 119/119/119
f 116/116/116 122/122/122 117/117/117
f 117/117/117 122/122/122 113/113/113
f 119/119/119 122/122/122 116/116/116
f 129/129/129 132/132/132 123/123/123
f 134/134/134 132/132/132 129/129/129
f 124/124/124 134/134/134 128/128/128
f 129/129/129 128/128/128 134/134/134
f 134/134/134 133/133/133 132/132/132
f 130/130/130 126/126/126 133/133/133
f 130/130/130 134/134/134 131/131/131
f 131/131/131 134/134/134 125/125/125
f 133/133/133 134/134/134 130/130/130
f 145/145/145 142/142/142 135/135/135
f 145/145/145 144/144/144 137/137/137
f 142/142/142 145/145/145 137/137/137
f 140/140/140 138/138/138 143/143/143
f 137/137/137 140/140/140 143/143/143
f 140/140/140 137/137/137 141/141/141
f 142/142/142 137/137/137 143/143/143
f 152/152/152 155/155/155 146/146/146
f 157/157/157 155/155/155 152/152/152
f 152/152/152 151/151/151 157/157/157
f 157/157/157 151/151/151 148/148/148
f 157/157/157 156/156/156 155/155/155
f 153/153/153 149/149/149 156/156/156
f 153/153/153 157/157/157 154/154/154
f 154/154/154 157/157/157 148/148/148
f 156/156/156 157/157/157 153/153/153
f 168/168/168 165/165/165 158/158/158
f 169/169/169 165/165/165 168/168/168
f 168/168/168 167/167/167 169/169/169
f 169/169/169 167/167/167 160/160/160
f 169/169/169 166/166/166 165/165/165
f 163/163/163 161/161/161 166/166/166
f 163/163/163 169/169/169 164/164/164
f 164/164/164 169/169/169 160/160/160
f 166/166/166 169/169/169 163/163/163
f 176/176/176 179/179/179 170/170/170
f 181/181/181 179/179/179 176/176/176
f 171/171/171 181/181/181 175/175/175
f 176/176/176 175/175/175 181/181/181
f 181/181/181 180/180/180 179/179/179
f 177/177/177 173/173/173 180/180/180
f 177/177/177 181/181/181 178/178/178
f 178/178/178 181/181/181 172/172/172
f 180/180/180 181/181/181 177/177/177
f 192/192/192 189/189/189 182/182/182
f 193/193/193 189/189/189 192/192/192
f 192/192/192 191/191/191 193/193/193
f 193/193/193 191/191/191 184/184/184
f 193/193/193 190/190/190 189/189/189
f 187/187/187 185/185/185 190/190/190
f 187/187/187 193/193/193 188/188/188
f 188/188/188 193/193/193 184/184/184
f 190/190/190 193/193/193 187/187/187
